<?xml version="1.0" encoding="utf-8"?>
<!-- Svg Vector Icons : http://www.onlinewebfonts.com/icon -->
<!DOCTYPE svg PUBLIC "-//W3C//DTD SVG 1.1//EN" "http://www.w3.org/Graphics/SVG/1.1/DTD/svg11.dtd">
<svg version="1.1" xmlns="http://www.w3.org/2000/svg" x="0px" y="0px" viewBox="0 0 256 256"
     enable-background="new 0 0 256 256" xml:space="preserve">
<metadata> Svg Vector Icons : https://www.onlinewebfonts.com/icon </metadata>
<g><g><path fill="#ffffff" d="M128,10C62.8,10,10,62.8,10,128c0,65.2,52.8,118,118,118c65.2,0,118-52.8,118-118C246,62.8,193.2,10,128,10z M128,222c-51.9,0-94-42.1-94-94c0-51.9,42.1-94,94-94c51.9,0,94,42.1,94,94C222,179.9,179.9,222,128,222z"/><path fill="#fff" d="M76.4,128c0,28.5,23.1,51.6,51.6,51.6c28.5,0,51.6-23.1,51.6-51.6c0-28.5-23.1-51.6-51.6-51.6C99.5,76.4,76.4,99.5,76.4,128z"/></g></g>
</svg>