<?xml version="1.0" encoding="UTF-8" standalone="no"?>
<!-- Uploaded to: SVG Repo, www.svgrepo.com, Generator: SVG Repo Mixer Tools -->

<svg
   fill="#FFF"
   height="800"
   width="773.87415"
   version="1.1"
   id="Capa_1"
   viewBox="0 0 28.998999 29.978"
   xml:space="preserve"
   sodipodi:docname="upload_.svg"
   inkscape:version="1.2.2 (b0a8486541, 2022-12-01)"
   xmlns:inkscape="http://www.inkscape.org/namespaces/inkscape"
   xmlns:sodipodi="http://sodipodi.sourceforge.net/DTD/sodipodi-0.dtd"
   xmlns="http://www.w3.org/2000/svg"
   xmlns:svg="http://www.w3.org/2000/svg"><defs
   id="defs41" /><sodipodi:namedview
   id="namedview39"
   pagecolor="#ffffff"
   bordercolor="#000000"
   borderopacity="0.25"
   inkscape:showpageshadow="2"
   inkscape:pageopacity="0.0"
   inkscape:pagecheckerboard="0"
   inkscape:deskcolor="#d1d1d1"
   showgrid="false"
   inkscape:zoom="0.38360543"
   inkscape:cx="660.83528"
   inkscape:cy="587.84361"
   inkscape:window-width="1920"
   inkscape:window-height="1047"
   inkscape:window-x="0"
   inkscape:window-y="0"
   inkscape:window-maximized="1"
   inkscape:current-layer="Capa_1" />
<g
   id="g36"
   transform="rotate(180,14.744,14.989)">
	<path
   d="m 25.462,19.105 v 6.848 H 4.515 V 19.105 H 0.489 v 8.861 c 0,1.111 0.9,2.012 2.016,2.012 h 24.967 c 1.115,0 2.016,-0.9 2.016,-2.012 v -8.861 z"
   id="path2" />
	<path
   d="M 14.62,18.426 8.856,11.461 c 0,0 -0.877,-0.828 0.074,-0.828 0.951,0 3.248,0 3.248,0 0,0 0,-0.557 0,-1.416 0,-2.449 0,-6.906 0,-8.723 0,0 -0.129,-0.494 0.615,-0.494 0.75,0 4.035,0 4.572,0 0.536,0 0.524,0.416 0.524,0.416 0,1.762 0,6.373 0,8.742 0,0.768 0,1.266 0,1.266 0,0 1.842,0 2.998,0 1.154,0 0.285,0.867 0.285,0.867 0,0 -4.904,6.51 -5.588,7.193 -0.492,0.495 -0.964,-0.058 -0.964,-0.058 z"
   id="path4" />
	<g
   id="g6">
	</g>
	<g
   id="g8">
	</g>
	<g
   id="g10">
	</g>
	<g
   id="g12">
	</g>
	<g
   id="g14">
	</g>
	<g
   id="g16">
	</g>
	<g
   id="g18">
	</g>
	<g
   id="g20">
	</g>
	<g
   id="g22">
	</g>
	<g
   id="g24">
	</g>
	<g
   id="g26">
	</g>
	<g
   id="g28">
	</g>
	<g
   id="g30">
	</g>
	<g
   id="g32">
	</g>
	<g
   id="g34">
	</g>
</g>
</svg>
