<?xml version="1.0" encoding="UTF-8" standalone="no"?>
<!-- Uploaded to: SVG Repo, www.svgrepo.com, Generator: SVG Repo Mixer Tools -->

<svg
        fill="#fff"
        height="800px"
        width="800px"
        version="1.1"
        id="Capa_1"
        viewBox="0 0 15 15"
        xml:space="preserve"
        xmlns="http://www.w3.org/2000/svg"
><defs
   id="defs39" />
<g
   id="g34"
   style="fill:#550000">
	<path
   d="M 11.295719,8.5107097 10.616442,7.809871 C 11.600751,6.1490876 11.303843,3.26 9.7948433,1.75 c -1.5,-1.496 -3.62,-1.986 -5.529,-1.469 l 3.232,3.232 -0.848,3.167 -3.167,0.847 -3.23399998,-3.23 c -0.514,1.908 -0.025,4.029 1.47499998,5.529 1.7092488,1.41647 3.178318,1.462724 5.330129,1.07794 L 8.2816498,10.489912 21.322433,23.546977 c 0.526,0.525 0.74741,1.776023 1.43741,1.776023 0.69,0 1.377,-0.266 1.906,-0.791 1.053,-1.049 -0.03571,-2.114599 -1.08871,-3.171599 z M 22.991843,24.08 c -0.566,0 -1.027,-0.461 -1.027,-1.029 0,-0.57 0.461,-1.029 1.027,-1.029 0.57,0 1.03,0.459 1.03,1.029 0.001,0.568 -0.459,1.029 -1.03,1.029 z"
   id="path2"
   style="fill:#ffffff"
    />
	<g
   id="g4"
   style="fill:#550000">
	</g>
	<g
   id="g6"
   style="fill:#550000">
	</g>
	<g
   id="g8"
   style="fill:#550000">
	</g>
	<g
   id="g10"
   style="fill:#550000">
	</g>
	<g
   id="g12"
   style="fill:#550000">
	</g>
	<g
   id="g14"
   style="fill:#550000">
	</g>
	<g
   id="g16"
   style="fill:#550000">
	</g>
	<g
   id="g18"
   style="fill:#550000">
	</g>
	<g
   id="g20"
   style="fill:#550000">
	</g>
	<g
   id="g22"
   style="fill:#550000">
	</g>
	<g
   id="g24"
   style="fill:#550000">
	</g>
	<g
   id="g26"
   style="fill:#550000">
	</g>
	<g
   id="g28"
   style="fill:#550000">
	</g>
	<g
   id="g30"
   style="fill:#550000">
	</g>
	<g
   id="g32"
   style="fill:#550000">
	</g>
</g>
</svg>
